<svg xmlns="http://www.w3.org/2000/svg" viewBox="0 0 143.5 143.5"><defs><style>.cls-1{fill:#fbb03b;stroke-width:5px;}.cls-1,.cls-2,.cls-3{stroke:#e6e6e6;stroke-miterlimit:10;}.cls-2{fill:#f15a24;stroke-width:3px;}</style></defs><g id="Слой_2" data-name="Слой 2"><g id="MainMenu"><g id="CatCoins"><circle class="cls-1" cx="71.75" cy="71.75" r="69.25"/><path class="cls-2" d="M67.94,82.23h8.45a27.53,27.53,0,0,1,27.53,27.53v.18A13.53,13.53,0,0,1,90.4,123.48H53.93A13.53,13.53,0,0,1,40.4,109.95v-.18A27.53,27.53,0,0,1,67.94,82.23Z"/><ellipse class="cls-2" cx="31.2" cy="79.1" rx="9.75" ry="19.5" transform="translate(-23.76 14.22) rotate(-18.74)"/><ellipse class="cls-2" cx="112.42" cy="76.8" rx="19.5" ry="9.75" transform="translate(0.77 154.73) rotate(-69.25)"/><ellipse class="cls-2" cx="53.07" cy="57.49" rx="11.83" ry="23.67" transform="translate(-8.3 8.95) rotate(-8.95)"/><ellipse class="cls-2" cx="86.74" cy="57.2" rx="23.67" ry="11.83" transform="translate(26.54 141.88) rotate(-87.99)"/><path class="cls-3" d="M41.66,30.58a16.52,16.52,0,0,1-.41-3.95,13.34,13.34,0,0,1,2.31-6.15A25.08,25.08,0,0,1,46,17.16c.92-1,2.18-2.07,3.55-1.83a13.14,13.14,0,0,0-1.47,5,25.69,25.69,0,0,0,.54,6.36A16.45,16.45,0,0,0,49.78,31a16.41,16.41,0,0,1,1.46,3.09,4.89,4.89,0,0,0-4.47-.69,4.23,4.23,0,0,0-1.92,2c-.25.49-.51,2-1.37,1.7-.67-.25-.91-2.25-1.07-2.87C42.12,33,41.89,31.79,41.66,30.58Z"/><path class="cls-3" d="M94.83,29.28a16.48,16.48,0,0,0-.06-4,13.37,13.37,0,0,0-3-5.83,24.41,24.41,0,0,0-2.85-3c-1-.92-2.42-1.79-3.75-1.39a13,13,0,0,1,2.06,4.78,25.62,25.62,0,0,1,.24,6.37,16.7,16.7,0,0,1-.61,4.41,15.89,15.89,0,0,0-1.07,3.23,4.93,4.93,0,0,1,4.35-1.23,4.16,4.16,0,0,1,2.14,1.76c.31.46.76,2,1.58,1.53.63-.34.63-2.35.7-3C94.67,31.74,94.75,30.51,94.83,29.28Z"/><path class="cls-3" d="M125.91,57.23a16.29,16.29,0,0,0,.69-3.91,13.22,13.22,0,0,0-1.87-6.3,26.37,26.37,0,0,0-2.23-3.48c-.85-1.1-2-2.22-3.42-2.07a13.12,13.12,0,0,1,1.12,5.08,25.93,25.93,0,0,1-1,6.3,16.25,16.25,0,0,1-1.44,4.21,16.75,16.75,0,0,0-1.66,3,4.87,4.87,0,0,1,4.51-.38,4.13,4.13,0,0,1,1.76,2.12c.22.51.37,2.07,1.26,1.8.68-.2,1.06-2.18,1.26-2.79C125.29,59.62,125.6,58.42,125.91,57.23Z"/><path class="cls-3" d="M18.4,58.18a16.34,16.34,0,0,1-.55-3.93A13.25,13.25,0,0,1,19.94,48a24.78,24.78,0,0,1,2.35-3.4c.89-1.07,2.11-2.14,3.49-1.95a13.06,13.06,0,0,0-1.3,5A25.56,25.56,0,0,0,25.24,54a16.41,16.41,0,0,0,1.29,4.26,16.39,16.39,0,0,1,1.56,3,4.92,4.92,0,0,0-4.49-.54,4.24,4.24,0,0,0-1.85,2.07c-.23.5-.44,2-1.31,1.75-.68-.23-1-2.22-1.16-2.83C18.94,60.59,18.67,59.39,18.4,58.18Z"/></g></g></g></svg>