<svg xmlns="http://www.w3.org/2000/svg" viewBox="0 0 326 539"><defs><style>.cls-1{fill:#f7931e;}.cls-1,.cls-2,.cls-6{stroke:#fff;}.cls-1,.cls-2,.cls-3,.cls-4,.cls-5,.cls-6{stroke-miterlimit:10;}.cls-1,.cls-6{stroke-width:10px;}.cls-2{font-size:120px;stroke-width:6px;}.cls-2,.cls-7{fill:#fff;font-family:GoodGirl-Regular, Good Girl;}.cls-3{fill:#fbb03b;stroke-width:5px;}.cls-3,.cls-4,.cls-5{stroke:#e6e6e6;}.cls-4,.cls-6{fill:#f15a24;}.cls-4{stroke-width:3px;}.cls-7{font-size:70px;}</style></defs><g id="Слой_2" data-name="Слой 2"><g id="CoinShop"><g id="Stars"><rect class="cls-1" x="5" y="5" width="316" height="484" rx="52.82"/><text class="cls-2" transform="translate(61.06 383.87)">1000</text><g id="Footstep"><circle class="cls-3" cx="165.87" cy="182.56" r="97.87"/><path class="cls-4" d="M197.82,255.66H135.1a13.52,13.52,0,0,1-13.53-13.52V224.91a27.53,27.53,0,0,1,27.53-27.53h34.71a27.53,27.53,0,0,1,27.54,27.53v17.23A13.52,13.52,0,0,1,197.82,255.66Z"/><ellipse class="cls-4" cx="108.56" cy="192.95" rx="13.78" ry="27.56" transform="translate(-56.24 45.11) rotate(-18.74)"/><ellipse class="cls-4" cx="223.35" cy="189.7" rx="27.56" ry="13.78" transform="translate(-33.17 331.37) rotate(-69.25)"/><ellipse class="cls-4" cx="139.47" cy="162.41" rx="16.73" ry="33.45" transform="translate(-23.56 23.67) rotate(-8.95)"/><ellipse class="cls-4" cx="187.05" cy="161.99" rx="33.45" ry="16.73" transform="translate(18.61 343.26) rotate(-87.99)"/><path class="cls-5" d="M123.35,124.37a23.36,23.36,0,0,1-.58-5.58A18.63,18.63,0,0,1,126,110.1a35.44,35.44,0,0,1,3.49-4.69c1.3-1.47,3.09-2.93,5-2.58a18.42,18.42,0,0,0-2.08,7,36.2,36.2,0,0,0,.76,9,23.35,23.35,0,0,0,1.61,6.07,23.06,23.06,0,0,1,2,4.36c-1.88-1.15-4.28-1.9-6.32-1a6,6,0,0,0-2.7,2.83c-.36.69-.73,2.87-2,2.41-.94-.36-1.28-3.18-1.5-4.06C124,127.8,123.67,126.08,123.35,124.37Z"/><path class="cls-5" d="M198.49,122.54a23.47,23.47,0,0,0-.09-5.62,18.71,18.71,0,0,0-4.29-8.23,35,35,0,0,0-4-4.23c-1.47-1.31-3.42-2.53-5.29-2a18.45,18.45,0,0,1,2.91,6.75,36.21,36.21,0,0,1,.33,9,23.17,23.17,0,0,1-.86,6.22,22.34,22.34,0,0,0-1.51,4.58c1.73-1.38,4-2.41,6.15-1.74a6,6,0,0,1,3,2.48c.44.64,1.06,2.76,2.22,2.16.89-.47.89-3.32,1-4.21C198.27,126,198.38,124.28,198.49,122.54Z"/><path class="cls-5" d="M242.42,162a23.16,23.16,0,0,0,1-5.53,18.78,18.78,0,0,0-2.64-8.9,37.33,37.33,0,0,0-3.15-4.92c-1.2-1.56-2.88-3.13-4.83-2.92a18.37,18.37,0,0,1,1.57,7.18,35.88,35.88,0,0,1-1.38,8.9,23.11,23.11,0,0,1-2,6,22.85,22.85,0,0,0-2.35,4.2c2-1,4.41-1.6,6.37-.53a6,6,0,0,1,2.5,3c.31.72.52,2.92,1.77,2.55,1-.29,1.51-3.09,1.78-4C241.54,165.41,242,163.73,242.42,162Z"/><path class="cls-5" d="M90.47,163.39a23.3,23.3,0,0,1-.78-5.56,18.69,18.69,0,0,1,3-8.8A34.55,34.55,0,0,1,96,144.22c1.25-1.52,3-3,4.93-2.75a18.22,18.22,0,0,0-1.83,7.12,36.64,36.64,0,0,0,1.07,8.95,23.6,23.6,0,0,0,1.82,6,22.8,22.8,0,0,1,2.2,4.28c-1.92-1.09-4.35-1.75-6.35-.76a6,6,0,0,0-2.6,2.92c-.33.71-.62,2.9-1.86,2.48-.95-.32-1.39-3.13-1.64-4C91.23,166.79,90.85,165.09,90.47,163.39Z"/></g><g id="Prise"><rect class="cls-6" x="64" y="444" width="197" height="90" rx="16.41"/><text class="cls-7" transform="translate(89.73 509.36)">$0,99</text></g></g></g></g></svg>