<svg xmlns="http://www.w3.org/2000/svg" viewBox="0 0 748 227.14"><defs><style>.cls-1{fill:#06483a;stroke-width:8px;}.cls-1,.cls-5{stroke:#e6e6e6;}.cls-1,.cls-2,.cls-5{stroke-miterlimit:10;}.cls-2{font-size:130px;fill:#f15a24;stroke:#fff;font-family:GoodGirl-Regular, Good Girl;}.cls-2,.cls-5{stroke-width:3px;}.cls-3{letter-spacing:-0.02em;}.cls-4{letter-spacing:-0.01em;}.cls-5,.cls-6{fill:#fff;}</style></defs><g id="Слой_2" data-name="Слой 2"><g id="Paused"><g id="Shop"><path class="cls-1" d="M113.57,4H593.21A150.79,150.79,0,0,1,744,154.79v0a68.35,68.35,0,0,1-68.35,68.35H113.57A109.57,109.57,0,0,1,4,113.57v0A109.57,109.57,0,0,1,113.57,4Z"/><text class="cls-2" transform="translate(206.01 149.31)">Cu<tspan class="cls-3" x="129.35" y="0">s</tspan><tspan class="cls-4" x="174.59" y="0">t</tspan><tspan x="224.12" y="0">omize</tspan></text><path class="cls-5" d="M193.27,103.47c-10.56,3.25-21.14,6.28-31.74,9.32.61-25.84-7.48-52.25-11.77-52.38-8.08-.25-13.4,31.2-13.4,31.2C110.26,69,81,89.94,81,89.94c-1.76-3.82-9.76-27.39-17.23-27.62S56,93,56,93a153.34,153.34,0,0,0,.49,21.18c-11.23-1-22.43-2-33.61-3.45-4.67-.62-4.9,8.21-.27,8.83C34.29,121,46,122.1,57.75,123.1c.45,2.37,1,4.63,1.59,6.75-11.79,2-23.58,3.64-35.4,5.14-4.61.58-4.93,9.41-.26,8.83,12.94-1.65,25.89-3.46,38.77-5.63a46.5,46.5,0,0,0,3.43,5.88,237.71,237.71,0,0,1-30.79,12.76c-4.54,1.52-2.89,10.1,1.68,8.57a246.8,246.8,0,0,0,34.61-14.56c13,12.76,33.53,14.72,59.73,10.58a29.9,29.9,0,0,0,18.41-10c11.13,6.2,22.48,11.52,34.51,14.74,4.56,1.21,6.78-7.23,2.2-8.44-11.08-3-21.59-7.71-31.88-13.31a46.09,46.09,0,0,0,3.07-6.93c11.42,1.78,22.92,2.64,34.41,4.06,4.69.57,4.92-8.26.26-8.83-10.76-1.35-21.59-2.07-32.33-3.67.47-2.3.83-4.63,1.11-7,11.35-3.28,22.72-6.52,34-10C199.52,110.63,197.86,102.07,193.27,103.47Z"/><path class="cls-6" d="M148.85,179.51a2.86,2.86,0,0,1-2.81,2.91,2.87,2.87,0,1,1-.09-5.74A2.87,2.87,0,0,1,148.85,179.51Zm13.49-116.6a2.94,2.94,0,0,0,2.88,2.88,2.87,2.87,0,1,0,0-5.74A2.85,2.85,0,0,0,162.34,62.91Zm-74.17-22a2.88,2.88,0,0,0-2.91-2.83,2.87,2.87,0,1,0,.09,5.74A2.86,2.86,0,0,0,88.17,40.89Zm-38.74,117a2.87,2.87,0,0,0-5.74-.12,2.87,2.87,0,0,0,5.74.12ZM32.6,118.07A2.94,2.94,0,0,0,29.76,121a2.89,2.89,0,0,0,2.93,2.82,2.87,2.87,0,0,0-.09-5.74Zm151.85-1.27a2.89,2.89,0,1,0,0-5.77,2.89,2.89,0,0,0,0,5.77Zm-10.42,38a2.93,2.93,0,0,0,2.86-2.9,2.88,2.88,0,0,0-5.76,0A2.92,2.92,0,0,0,174,154.77Zm12.82-32.88a2.87,2.87,0,1,0-5.74,0,2.86,2.86,0,0,0,2.84,2.9A2.91,2.91,0,0,0,186.85,121.89Zm-50-77.7a2.89,2.89,0,1,0,2.86-2.93A2.92,2.92,0,0,0,136.86,44.19ZM72.81,179.12a2.87,2.87,0,1,0-2.9,2.84A2.89,2.89,0,0,0,72.81,179.12Zm89-8.81a2.91,2.91,0,0,0-2.86-2.9,2.87,2.87,0,1,0,2.86,2.9Zm-53.93,16.33a2.87,2.87,0,0,0,.07,5.74,2.87,2.87,0,0,0-.07-5.74ZM116.76,35a2.86,2.86,0,0,0-2.84,2.88,2.9,2.9,0,0,0,2.91,2.84,2.86,2.86,0,1,0-.07-5.72Zm47.87,126.84a2.87,2.87,0,1,0,2.81,2.9A2.84,2.84,0,0,0,164.63,161.83ZM36.93,97.2a2.88,2.88,0,0,0-5.76,0A2.9,2.9,0,0,0,34,100,2.86,2.86,0,0,0,36.93,97.2ZM80.72,43.73a2.88,2.88,0,0,0-2.88-2.86A2.93,2.93,0,0,0,75,43.77a2.89,2.89,0,0,0,2.9,2.84A2.84,2.84,0,0,0,80.72,43.73ZM63.24,171.83a2.9,2.9,0,0,0-2.83,2.91,2.86,2.86,0,0,0,5.72-.09A2.88,2.88,0,0,0,63.24,171.83ZM121.76,39.16A2.87,2.87,0,0,0,124.67,42a2.84,2.84,0,0,0,2.83-2.89,2.87,2.87,0,0,0-5.74.07Zm-72.49,23a2.94,2.94,0,0,0,2.86,2.91A2.88,2.88,0,0,0,55,62.22a2.84,2.84,0,0,0-2.83-2.88A2.88,2.88,0,0,0,49.27,62.17ZM106,37.34a2.83,2.83,0,0,0,2.81,2.91,2.92,2.92,0,0,0,2.93-2.84,2.87,2.87,0,0,0-2.86-2.88A2.79,2.79,0,0,0,106,37.34Zm47.48,12a2.85,2.85,0,1,0,0,5.7,2.85,2.85,0,1,0,0-5.7ZM33.91,125.93a2.87,2.87,0,1,0,2.82,2.93A2.89,2.89,0,0,0,33.91,125.93ZM77,179.88a2.83,2.83,0,0,0-2.88,2.84,2.85,2.85,0,1,0,5.69,0A2.83,2.83,0,0,0,77,179.88Zm43.81,8.05a2.87,2.87,0,1,0,2.91-2.81A2.85,2.85,0,0,0,120.84,187.93Zm-30.67-149A2.79,2.79,0,0,0,93,41.77,2.73,2.73,0,0,0,95.85,39a2.84,2.84,0,0,0-5.68-.05Zm87.21,36.87a2.88,2.88,0,1,0-2.84,2.88A2.85,2.85,0,0,0,177.38,75.78ZM131.47,183.09a2.86,2.86,0,1,0-.09,5.71,2.86,2.86,0,1,0,.09-5.71Zm31-125.87a2.88,2.88,0,0,0-5.76,0,2.88,2.88,0,0,0,5.76,0Zm-6.91,118.12a2.87,2.87,0,1,0-2.93,2.81A2.92,2.92,0,0,0,155.59,175.34ZM33.29,89.47a2.88,2.88,0,0,0,2.88,2.86,2.85,2.85,0,0,0,0-5.69A2.86,2.86,0,0,0,33.29,89.47ZM64.07,48.76a2.85,2.85,0,0,0-2.88,2.83,2.84,2.84,0,1,0,2.88-2.83ZM185.75,98.1a2.81,2.81,0,0,0-2.84-2.86,2.86,2.86,0,1,0,0,5.72A2.87,2.87,0,0,0,185.75,98.1ZM170.14,66.28a2.77,2.77,0,0,0-2.79,2.9,2.85,2.85,0,1,0,5.69-.09A2.78,2.78,0,0,0,170.14,66.28ZM70.78,44.49A2.8,2.8,0,0,0,67.9,47.3a2.85,2.85,0,1,0,5.7.07A2.82,2.82,0,0,0,70.78,44.49ZM138.89,180.3a2.84,2.84,0,0,0-2.88,2.83,2.86,2.86,0,1,0,2.88-2.83Zm45.17-77.18A2.85,2.85,0,0,0,181.2,106a2.88,2.88,0,0,0,2.89,2.86,2.86,2.86,0,0,0,0-5.72Zm-3.46,31.43a2.85,2.85,0,1,0,2.84,2.88A2.88,2.88,0,0,0,180.6,134.55ZM146.85,45a2.86,2.86,0,0,0-.07,5.72,2.86,2.86,0,0,0,.07-5.72ZM89.25,187.77a2.85,2.85,0,1,0,2.86-2.84A2.79,2.79,0,0,0,89.25,187.77ZM181,87.54a2.84,2.84,0,1,0,2.72,2.95A2.78,2.78,0,0,0,181,87.54ZM60.68,56.62a2.85,2.85,0,0,0-2.83-2.88,2.85,2.85,0,1,0,2.83,2.88Zm124.84,73.11a2.82,2.82,0,0,0-2.84-2.88,2.87,2.87,0,0,0,0,5.74A2.82,2.82,0,0,0,185.52,129.73ZM100.94,34.87A2.85,2.85,0,0,0,98,37.69a2.84,2.84,0,1,0,2.9-2.82ZM47.15,65.49a2.83,2.83,0,0,0-2.88,2.84,2.75,2.75,0,0,0,2.79,2.88,2.86,2.86,0,0,0,.09-5.72ZM175.23,82.88A2.79,2.79,0,0,0,178,85.79,2.86,2.86,0,0,0,180.93,83a2.85,2.85,0,1,0-5.7-.09ZM39,79.24a2.84,2.84,0,1,0,.07,5.67A2.84,2.84,0,1,0,39,79.24Zm3.25,69a2.86,2.86,0,0,0-.07,5.72,2.86,2.86,0,0,0,.07-5.72Zm127.35,7.47a2.84,2.84,0,1,0,0,5.68,2.82,2.82,0,0,0,2.86-2.86A2.87,2.87,0,0,0,169.63,155.69Zm10.93-10.88a2.9,2.9,0,0,0-2.88-2.86,2.86,2.86,0,0,0,0,5.72A2.92,2.92,0,0,0,180.56,144.81Zm-77.77,44.27a2.87,2.87,0,0,0-2.82-2.9,2.87,2.87,0,1,0,2.82,2.9Zm-70.54-79A2.83,2.83,0,0,0,29.44,113a2.85,2.85,0,1,0,5.7-.07A2.84,2.84,0,0,0,32.25,110.11Zm24.86,56.7a2.85,2.85,0,0,0,0,5.69A2.75,2.75,0,0,0,60,169.67,2.79,2.79,0,0,0,57.11,166.81Zm-5.63-5.67a2.87,2.87,0,0,0,.07,5.74,2.87,2.87,0,0,0-.07-5.74ZM38.76,136.56a2.89,2.89,0,1,0-3,2.79A2.88,2.88,0,0,0,38.76,136.56Zm90.68-95.28a2.89,2.89,0,0,0,2.93,2.82,2.85,2.85,0,0,0,2.81-2.88,2.8,2.8,0,0,0-2.9-2.79A2.83,2.83,0,0,0,129.44,41.28Zm-96.7,60.9a2.79,2.79,0,0,0-2.81,2.88,2.73,2.73,0,0,0,2.85,2.81,2.85,2.85,0,0,0,0-5.69Zm51.72,80.63a2.85,2.85,0,1,0-.07,5.69,2.77,2.77,0,0,0,2.88-2.81A2.81,2.81,0,0,0,84.46,182.81ZM42.72,72.14a2.88,2.88,0,0,0,0,5.76,2.88,2.88,0,0,0,0-5.76Zm-4,69A2.85,2.85,0,1,0,41.55,144,2.85,2.85,0,0,0,38.73,141.12Zm80,48.08a2.87,2.87,0,1,0-2.93,2.81A2.85,2.85,0,0,0,118.72,189.2Z"/></g></g></g></svg>