<svg xmlns="http://www.w3.org/2000/svg" viewBox="0 0 113.92 162.4"><defs><style>.cls-1{fill:#fff;stroke:#000;}.cls-1,.cls-2{stroke-miterlimit:10;}.cls-2{fill:none;stroke:#fff;stroke-width:5px;}</style></defs><g id="Слой_2" data-name="Слой 2"><g id="MainMenu"><g id="DragTap"><path class="cls-1" d="M101.66,70.21a12.09,12.09,0,0,0-7,2.35V70.21A11.64,11.64,0,0,0,82.86,58.45,12.1,12.1,0,0,0,75.8,60.8,11.64,11.64,0,0,0,64.05,49.05,12.1,12.1,0,0,0,57,51.4V32.59C57,26,44.38,26,44.38,26s-10.9,0-10.9,6.59V86C28.31,77,16.32,72.56,7.15,75.85a10.66,10.66,0,0,0-3.29,1.64A6.79,6.79,0,0,0,.57,83.84c-.24,1.41,0,1.65,3.29,5.41,4,4.7,12.69,14.58,18.1,24.45.47.47,6.82,10.82,13.87,18.58v6.11A23.58,23.58,0,0,0,59.34,161.9H82.86c10.1,0,20.68-8.46,23-18.34.7-2.82,1.41-4.94,2.35-5.88,2.35-2.82,5.17-9.4,5.17-18.1V82A11.64,11.64,0,0,0,101.66,70.21Zm-18.57,87H59.58a18.87,18.87,0,0,1-18.81-18.81v-2.13c.46.33.93.65,1.41,1,1.41,1.18,2.59,1.88,4,3.06a3.41,3.41,0,0,0,1.41.47,1.57,1.57,0,0,0,1.64-.94,2.28,2.28,0,0,0-.23-3.29,25.83,25.83,0,0,0-4.23-3.29c-1.63-1.17-3.26-2.33-4.89-3.73-7-7.28-13.69-18.14-13.69-18.14C20.55,101.24,11.62,91.13,7.38,86.19a30.6,30.6,0,0,0-2.11-2.58c0-.71,0-1.18,1.64-2.12a20.35,20.35,0,0,1,2.36-1.17C15.38,78.2,25.49,81,30,88.78l3.64,5.45a2.35,2.35,0,0,0,.13.43l2.35,4.7a2.25,2.25,0,0,0,2.11,1.41c.47,0,.71,0,.94-.47a2.48,2.48,0,0,0,.94-3.06l-1.65-3.31c0-.07,0-.14,0-.21V32.59c0-4,7-3.59,7-3.59s7.05-.41,7.05,3.59V98.42a2.36,2.36,0,0,0,4.71,0V60.8a7.05,7.05,0,0,1,14.1,0V96.07a2.36,2.36,0,0,0,4.71,0V70.21a7.05,7.05,0,1,1,14.1,0V98.42a2.35,2.35,0,0,0,4.7,0V82A7.06,7.06,0,0,1,109,82v37.62a28.93,28.93,0,0,1-1.84,10.47,2.71,2.71,0,0,0-.51.81c-.94,3.06-3.76,3.77-8.93,5.18l-1.42.23a2.42,2.42,0,0,0-1.64,2.82A2.84,2.84,0,0,0,97,140.74h1.88c1.08-.3,2.16-.58,3.21-.9-.23.8-.44,1.65-.62,2.54C99.78,150.38,91.08,157.2,83.09,157.2Z"/><path class="cls-2" d="M25.69,15.28q19.74-25.56,39.5,0"/></g></g></g></svg>