<svg xmlns="http://www.w3.org/2000/svg" viewBox="0 0 113.92 142.07"><defs><style>.cls-1{fill:#fff;stroke:#000;stroke-miterlimit:10;}</style></defs><g id="Слой_2" data-name="Слой 2"><g id="MainMenu"><g id="Drag_It_" data-name="Drag It!"><path class="cls-1" d="M101.66,49.87a12.09,12.09,0,0,0-7,2.35V49.87A11.64,11.64,0,0,0,82.86,38.12a12.1,12.1,0,0,0-7.06,2.35A11.64,11.64,0,0,0,64.05,28.71,12.1,12.1,0,0,0,57,31.06V12.26a11.76,11.76,0,1,0-23.51,0V65.63C28.31,56.69,16.32,52.22,7.15,55.52a10.66,10.66,0,0,0-3.29,1.64A6.79,6.79,0,0,0,.57,63.51c-.24,1.41,0,1.65,3.29,5.41,4,4.7,12.69,14.57,18.1,24.45.47.47,6.82,10.81,13.87,18.57v6.12a23.58,23.58,0,0,0,23.51,23.51H82.86c10.1,0,20.68-8.47,23-18.34.7-2.82,1.41-4.94,2.35-5.88,2.35-2.82,5.17-9.4,5.17-18.1V61.63A11.65,11.65,0,0,0,101.66,49.87Zm-18.57,87H59.58a18.86,18.86,0,0,1-18.81-18.81v-2.12c.46.33.93.65,1.41.95,1.41,1.17,2.59,1.88,4,3.06a3.41,3.41,0,0,0,1.41.47,1.57,1.57,0,0,0,1.64-.94,2.3,2.3,0,0,0-.23-3.3,25.83,25.83,0,0,0-4.23-3.29c-1.63-1.16-3.26-2.33-4.89-3.72C32.89,101.87,26.19,91,26.19,91,20.55,80.91,11.62,70.8,7.38,65.86a31,31,0,0,0-2.11-2.59c0-.7,0-1.17,1.64-2.11A22.41,22.41,0,0,1,9.27,60c6.11-2.11,16.22.71,20.68,8.47l3.64,5.45a2.25,2.25,0,0,0,.13.42L36.07,79a2.25,2.25,0,0,0,2.11,1.41c.47,0,.71,0,.94-.47a2.48,2.48,0,0,0,.94-3.06l-1.65-3.32c0-.07,0-.14,0-.21V12.26a7.05,7.05,0,1,1,14.1,0V78.09a2.36,2.36,0,0,0,4.71,0V40.47a7.05,7.05,0,1,1,14.1,0V75.74a2.36,2.36,0,0,0,4.71,0V49.87a7,7,0,0,1,14.1,0V78.09a2.35,2.35,0,0,0,4.7,0V61.63a7.06,7.06,0,0,1,14.11,0V99.25a28.93,28.93,0,0,1-1.84,10.47,2.59,2.59,0,0,0-.51.81c-.94,3.06-3.76,3.76-8.93,5.17l-1.42.24a2.41,2.41,0,0,0-1.64,2.82A2.84,2.84,0,0,0,97,120.41h1.88c1.08-.3,2.16-.58,3.21-.9-.23.8-.44,1.65-.62,2.54C99.78,130.05,91.08,136.86,83.09,136.86Z"/></g></g></g></svg>