<svg xmlns="http://www.w3.org/2000/svg" viewBox="0 0 178.17 154.75"><defs><style>.cls-1{fill:#fff;stroke:#e6e6e6;stroke-miterlimit:10;stroke-width:3px;}</style></defs><g id="Слой_2" data-name="Слой 2"><g id="Settings"><g id="Footstep"><ellipse class="cls-1" cx="114.03" cy="41.42" rx="39.94" ry="19.97" transform="translate(68.64 153.93) rotate(-87.99)"/><ellipse class="cls-1" cx="57.23" cy="41.92" rx="19.97" ry="39.94" transform="translate(-5.82 9.41) rotate(-8.95)"/><ellipse class="cls-1" cx="157.37" cy="74.5" rx="32.9" ry="16.45" transform="translate(31.95 195.28) rotate(-69.25)"/><ellipse class="cls-1" cx="20.33" cy="78.38" rx="16.45" ry="32.9" transform="translate(-24.1 10.69) rotate(-18.74)"/><path class="cls-1" d="M63.39,83.67H115.5A27.53,27.53,0,0,1,143,111.2v28.52a13.53,13.53,0,0,1-13.53,13.53H49.38a13.53,13.53,0,0,1-13.53-13.53V111.2A27.53,27.53,0,0,1,63.39,83.67Z"/></g></g></g></svg>