<svg xmlns="http://www.w3.org/2000/svg" viewBox="0 0 1295.01 697.99"><defs><style>.cls-1{fill:#06483a;stroke:#e6e6e6;stroke-width:8px;}.cls-1,.cls-2,.cls-3,.cls-4,.cls-5,.cls-6{stroke-miterlimit:10;}.cls-2{font-size:220px;fill:#f7931e;}.cls-2,.cls-3,.cls-4,.cls-5,.cls-6{stroke:#fff;}.cls-2,.cls-3,.cls-6{stroke-width:10px;}.cls-2,.cls-3{font-family:Bulky;}.cls-3{font-size:300px;}.cls-3,.cls-4,.cls-5,.cls-6{fill:#f15a24;}.cls-4{stroke-width:7px;}.cls-5{stroke-width:5px;}</style></defs><g id="Слой_2" data-name="Слой 2"><g id="MainMenu"><g id="LogoText"><g id="Background"><ellipse class="cls-1" cx="494.46" cy="349" rx="324.49" ry="504.12" transform="translate(12.01 714.42) rotate(-72.36)"/><text id="Climbing" class="cls-2" transform="translate(21.01 346.15)">Cl mbing</text><text class="cls-3" transform="translate(536.48 566.14)">Cat</text><ellipse class="cls-4" cx="278.38" cy="384.98" rx="26.35" ry="52.99" transform="translate(-180.16 260.7) rotate(-38.96)"/><ellipse class="cls-4" cx="490.1" cy="491.66" rx="19.84" ry="36.98" transform="translate(-182.43 663.82) rotate(-59.45)"/><ellipse class="cls-4" cx="387.46" cy="556.98" rx="19.84" ry="36.98" transform="translate(-145.84 137.53) rotate(-16.99)"/><path class="cls-5" d="M492.48,311.44c-.33-5.71-4.35-10.68-9.31-13.61s-10.76-4.14-16.49-5.08c-4.74-.78-10.07-1.27-14,1.54,3.07.32,5.6,2.58,7.1,5.21s2.16,5.63,2.92,8.56c1.54,5.92,3.66,11.83,7.52,16.59s9.75,8.26,16,8.07"/><circle class="cls-6" cx="396.08" cy="453.49" r="98.31"/><ellipse class="cls-6" cx="485.15" cy="385.74" rx="80.63" ry="72.17" transform="translate(-91.54 158.6) rotate(-16.99)"/><ellipse class="cls-4" cx="344.52" cy="540.92" rx="36.98" ry="19.84" transform="translate(-260.07 754.83) rotate(-76.99)"/><ellipse class="cls-4" cx="475.13" cy="514" rx="19.84" ry="36.98" transform="translate(-224.82 510.82) rotate(-46.99)"/><path class="cls-5" d="M447.51,333.5c1.07-5.74-.5-10.6-6.29-14.1S428,314,420.7,312.45c-6.09-1.32-13-2.42-18.94-.05a10.72,10.72,0,0,1,8,6c1.3,2.81,1.38,5.89,1.62,8.91.48,6.1,1.73,12.26,5.6,17.46a25.82,25.82,0,0,0,19.06,9.89"/><ellipse class="cls-4" cx="241.55" cy="316.97" rx="25.17" ry="54.6" transform="translate(-82.08 84.42) rotate(-16.99)"/><ellipse class="cls-4" cx="234.69" cy="229.51" rx="54.6" ry="24.77" transform="translate(-8.53 449.96) rotate(-86.55)"/><ellipse class="cls-4" cx="238.91" cy="164.91" rx="37.02" ry="32.25" transform="translate(24.45 360.56) rotate(-76.99)"/></g></g></g></g></svg>