<svg xmlns="http://www.w3.org/2000/svg" viewBox="0 0 748 227.14"><defs><style>.cls-1{fill:#06483a;stroke:#e6e6e6;stroke-width:8px;}.cls-1,.cls-2{stroke-miterlimit:10;}.cls-2{font-size:130px;fill:#f15a24;stroke:#fff;stroke-width:3px;font-family:GoodGirl-Regular, Good Girl;}.cls-3{letter-spacing:-0.04em;}.cls-4{fill:#fff;}</style></defs><g id="Слой_2" data-name="Слой 2"><g id="Paused"><g id="MainMenuBurtton"><path class="cls-1" d="M113.57,4H593.21A150.79,150.79,0,0,1,744,154.79v0a68.35,68.35,0,0,1-68.35,68.35H113.57A109.57,109.57,0,0,1,4,113.57v0A109.57,109.57,0,0,1,113.57,4Z"/><text class="cls-2" transform="translate(190.41 149.31)"><tspan class="cls-3">M</tspan><tspan x="97.63" y="0">ain menu</tspan></text><path class="cls-4" d="M180,106.71l-22.51-22.5v-26a8.51,8.51,0,0,0-17,0v9L123.72,50.43c-8.29-8.28-22.69-8.27-31,0L36.49,106.71a8.51,8.51,0,0,0,12,12L104.8,62.48a5,5,0,0,1,6.88,0L168,118.75a8.51,8.51,0,1,0,12-12Z"/><path class="cls-4" d="M111.2,78.63a4.18,4.18,0,0,0-5.91,0l-49.5,49.48a4.19,4.19,0,0,0-1.22,3v36.09A15.34,15.34,0,0,0,69.91,182.5h24.5V144.55h27.67V182.5h24.5a15.34,15.34,0,0,0,15.34-15.34V131.07a4.16,4.16,0,0,0-1.23-3Z"/></g></g></g></svg>