<svg xmlns="http://www.w3.org/2000/svg" viewBox="0 0 772.01 228.06"><defs><style>.cls-1{fill:#06483a;}.cls-1,.cls-4{stroke:#e6e6e6;stroke-width:8px;}.cls-1,.cls-2,.cls-4{stroke-miterlimit:10;}.cls-2{font-size:130px;fill:#f15a24;stroke:#fff;stroke-width:4px;font-family:GoodGirl-Regular, Good Girl;}.cls-3{letter-spacing:-0.02em;}.cls-4{fill:#033;}</style></defs><g id="Слой_2" data-name="Слой 2"><g id="Settings"><g id="Music"><path class="cls-1" d="M113.57,4.92H593.21A150.79,150.79,0,0,1,744,155.72v0a68.35,68.35,0,0,1-68.35,68.35H113.57A109.57,109.57,0,0,1,4,114.49v0A109.57,109.57,0,0,1,113.57,4.92Z"/><text class="cls-2" transform="translate(62.32 151.23)"><tspan class="cls-3">M</tspan><tspan x="100.36" y="0">usic</tspan></text><path class="cls-4" d="M558.06,4h88.79A121.16,121.16,0,0,1,768,125.16v0A98.84,98.84,0,0,1,669.17,224H558.06A33.05,33.05,0,0,1,525,190.95V37.05A33.05,33.05,0,0,1,558.06,4Z"/></g></g></g></svg>