<svg xmlns="http://www.w3.org/2000/svg" viewBox="0 0 326 539"><defs><style>.cls-1{fill:#f7931e;}.cls-1,.cls-2,.cls-5,.cls-6{stroke:#fff;stroke-miterlimit:10;}.cls-1,.cls-6{stroke-width:10px;}.cls-2{font-size:110px;}.cls-2,.cls-7{fill:#fff;font-family:GoodGirl-Regular, Good Girl;}.cls-2,.cls-5{stroke-width:6px;}.cls-3{letter-spacing:-0.02em;}.cls-4{letter-spacing:0.01em;}.cls-5{fill:#c1272d;}.cls-6{fill:#f15a24;}.cls-7{font-size:70px;}</style></defs><g id="Слой_2" data-name="Слой 2"><g id="CoinShop"><g id="NoAds"><rect class="cls-1" x="5" y="5" width="316" height="484" rx="52.82"/><text class="cls-2" transform="translate(28.05 383.87)"><tspan class="cls-3">N</tspan><tspan x="56.87" y="0">o </tspan><tspan class="cls-4" x="120.89" y="0">A</tspan><tspan x="190.19" y="0">ds</tspan></text><g id="AD"><path class="cls-5" d="M164.29,64.79a117.87,117.87,0,1,1-45.13,8.95,117.85,117.85,0,0,1,45.13-8.95ZM146.43,201H127.52l-2.71,8.9h-17l20.34-54h18.25l20.24,54H149.14l-2.71-8.9Zm-3.53-11.69L137,169.88l-5.92,19.41Zm26.83-33.42h24.81a30,30,0,0,1,11.84,2,19.54,19.54,0,0,1,7.48,5.71,23.69,23.69,0,0,1,4.26,8.67,39.84,39.84,0,0,1,1.33,10.45q0,8.65-2,13.44a22.07,22.07,0,0,1-5.48,8,18,18,0,0,1-7.51,4.31,38.88,38.88,0,0,1-9.94,1.48H169.73v-54Zm16.66,12.22V197.6h4.09c3.5,0,6-.39,7.48-1.16a8,8,0,0,0,3.48-4.05c.84-1.94,1.25-5.06,1.25-9.38,0-5.73-.92-9.63-2.81-11.74s-5-3.18-9.32-3.18Zm56.22-42.68L219.08,149l-21.35-8.28,30.75-30.75A97.3,97.3,0,0,0,127.19,93.06,97.08,97.08,0,0,0,91.41,247l23.46-23.47,23.39,6.27L106.9,261.16A97.09,97.09,0,0,0,242.61,125.41Z"/></g><g id="Prise_копия_" data-name="Prise (копия)"><rect class="cls-6" x="64" y="444" width="197" height="90" rx="16.41"/><text class="cls-7" transform="translate(95.37 509.36)">$1,99</text></g></g></g></g></svg>