<svg xmlns="http://www.w3.org/2000/svg" viewBox="0 0 502 298.56"><defs><style>.cls-1{fill:#06483a;stroke:#e6e6e6;stroke-width:8px;}.cls-1,.cls-2{stroke-miterlimit:10;}.cls-2{font-size:135px;fill:#f15a24;stroke:#fff;stroke-width:3px;font-family:GoodGirl-Regular, Good Girl;}.cls-3{letter-spacing:-0.01em;}.cls-4{fill:#fff;}</style></defs><g id="Слой_2" data-name="Слой 2"><g id="MainMenu"><g id="Settings"><path class="cls-1" d="M244.81,4h0A180.81,180.81,0,0,1,425.62,184.81v0a38.33,38.33,0,0,1-38.33,38.33h-285A38.33,38.33,0,0,1,64,184.81v0A180.81,180.81,0,0,1,244.81,4Z"/><text class="cls-2" transform="translate(29.47 256.7)">S<tspan class="cls-3" x="79.65" y="0">e</tspan><tspan x="134.05" y="0">ttings</tspan></text><g id="icons"><path id="settings-2" data-name="settings" class="cls-4" d="M300.42,107.71l-6.5-3.79a11.15,11.15,0,0,1,0-19l6.5-3.79c5.42-3.25,7.05-9.75,3.8-14.62l-5.42-9.21c-3.25-5.42-9.75-7-14.63-3.79l-6.5,3.79c-7,4.33-16.25-1.09-16.25-9.21V40.55a10.87,10.87,0,0,0-10.83-10.84H239.76a10.87,10.87,0,0,0-10.84,10.84v7c0,8.12-9.2,13.54-16.25,9.21l-6.5-3.25a10.49,10.49,0,0,0-14.62,3.79l-5.42,9.21a11.81,11.81,0,0,0,3.79,15.16l6.5,3.79c7.05,3.8,7.05,14.63,0,18.42l-6.5,3.79c-5.41,3.25-7,9.75-3.79,14.63l5.42,9.21c3.25,5.41,9.75,7,14.62,3.79l6.5-3.25c7.05-4.34,16.25,1.08,16.25,9.21v7.58a10.87,10.87,0,0,0,10.84,10.83h10.83a10.86,10.86,0,0,0,10.83-10.83v-7c0-8.13,9.21-13.54,16.25-9.21l6.5,3.79a10.51,10.51,0,0,0,14.63-3.79l5.42-9.21C306.92,117.46,305.3,111,300.42,107.71Zm-55.25,8.67a21.67,21.67,0,1,1,21.67-21.67A21.73,21.73,0,0,1,245.17,116.38Z"/></g></g></g></g></svg>