<svg xmlns="http://www.w3.org/2000/svg" viewBox="0 0 229 229"><defs><style>.cls-1{fill:#06483a;stroke:#e6e6e6;stroke-miterlimit:10;stroke-width:8px;}.cls-2{fill:#fff;}</style></defs><g id="Слой_2" data-name="Слой 2"><g id="BestScore"><g id="Settings"><rect class="cls-1" x="4" y="4" width="221" height="221" rx="49.06"/><g id="icons"><path id="settings-2" data-name="settings" class="cls-2" d="M169.67,127.39l-6.5-3.79a11.15,11.15,0,0,1,0-19l6.5-3.79c5.42-3.25,7-9.75,3.79-14.62L168.05,77c-3.25-5.42-9.75-7-14.63-3.79L146.92,77c-7,4.33-16.25-1.09-16.25-9.21V60.23a10.87,10.87,0,0,0-10.83-10.84H109A10.87,10.87,0,0,0,98.17,60.23v7c0,8.12-9.21,13.54-16.25,9.21l-6.5-3.25A10.49,10.49,0,0,0,60.8,77l-5.42,9.21a11.81,11.81,0,0,0,3.79,15.16l6.5,3.79c7,3.8,7,14.63,0,18.42l-6.5,3.79c-5.41,3.25-7,9.75-3.79,14.63l5.42,9.21c3.25,5.41,9.75,7,14.62,3.79l6.5-3.25c7-4.34,16.25,1.08,16.25,9.21v7.58A10.87,10.87,0,0,0,109,179.39h10.83a10.86,10.86,0,0,0,10.83-10.83v-7c0-8.13,9.21-13.54,16.25-9.21l6.5,3.79a10.51,10.51,0,0,0,14.63-3.79l5.41-9.21C176.17,137.14,174.55,130.64,169.67,127.39Zm-55.25,8.67a21.67,21.67,0,1,1,21.67-21.67A21.73,21.73,0,0,1,114.42,136.06Z"/></g></g></g></g></svg>