<svg xmlns="http://www.w3.org/2000/svg" viewBox="0 0 502 298.56"><defs><style>.cls-1{fill:#06483a;stroke-width:8px;}.cls-1,.cls-2{stroke:#e6e6e6;}.cls-1,.cls-2,.cls-4{stroke-miterlimit:10;}.cls-2,.cls-3{fill:#fff;}.cls-2,.cls-4{stroke-width:3px;}.cls-4{font-size:135px;fill:#f15a24;stroke:#fff;font-family:GoodGirl-Regular, Good Girl;}</style></defs><g id="Слой_2" data-name="Слой 2"><g id="MainMenu"><g id="Shop"><path class="cls-1" d="M244.81,4h0A180.81,180.81,0,0,1,425.62,184.81v0a38.33,38.33,0,0,1-38.33,38.33h-285A38.33,38.33,0,0,1,64,184.81v0A180.81,180.81,0,0,1,244.81,4Z"/><path class="cls-2" d="M332.3,84.09c-10.56,3.25-21.14,6.28-31.75,9.32.62-25.84-7.47-52.25-11.76-52.38-8.09-.24-13.4,31.2-13.4,31.2C249.29,49.62,220,70.56,220,70.56c-1.75-3.82-9.75-27.39-17.22-27.62S195,73.57,195,73.57a153.3,153.3,0,0,0,.49,21.18c-11.23-1-22.44-2-33.61-3.45-4.67-.62-4.9,8.22-.27,8.83,11.7,1.53,23.42,2.6,35.15,3.59.46,2.37,1,4.63,1.6,6.75-11.79,2-23.59,3.64-35.4,5.14-4.62.59-4.94,9.41-.26,8.83,12.94-1.65,25.89-3.46,38.77-5.63a46.5,46.5,0,0,0,3.43,5.88,240.37,240.37,0,0,1-30.79,12.77c-4.54,1.51-2.89,10.09,1.68,8.56a246.8,246.8,0,0,0,34.61-14.56c13,12.76,33.53,14.72,59.73,10.59a29.94,29.94,0,0,0,18.41-10c11.12,6.19,22.48,11.51,34.51,14.73,4.56,1.21,6.78-7.23,2.2-8.44-11.08-3-21.59-7.71-31.88-13.31a46.09,46.09,0,0,0,3.07-6.93c11.42,1.78,22.92,2.64,34.41,4.06,4.69.58,4.92-8.26.26-8.83-10.76-1.35-21.59-2.07-32.33-3.67.47-2.29.83-4.63,1.1-7,11.36-3.28,22.73-6.52,34-10C338.55,91.25,336.88,82.69,332.3,84.09Z"/><path class="cls-3" d="M287.88,160.13a2.85,2.85,0,0,1-2.81,2.91,2.9,2.9,0,0,1-2.93-2.81A2.93,2.93,0,0,1,285,157.3,2.88,2.88,0,0,1,287.88,160.13Zm13.49-116.6a3,3,0,0,0,2.88,2.89,2.88,2.88,0,0,0,0-5.75A2.85,2.85,0,0,0,301.37,43.53Zm-74.17-22a2.88,2.88,0,0,0-2.91-2.83,2.87,2.87,0,1,0,.09,5.74A2.85,2.85,0,0,0,227.2,21.51Zm-38.74,117a2.87,2.87,0,1,0-5.74-.12,2.87,2.87,0,0,0,5.74.12ZM171.63,98.69a2.94,2.94,0,0,0-2.84,2.92,2.89,2.89,0,0,0,2.93,2.82,2.87,2.87,0,0,0-.09-5.74Zm151.85-1.27a2.89,2.89,0,1,0,0-5.77,2.89,2.89,0,0,0,0,5.77Zm-10.42,38a2.92,2.92,0,0,0,2.86-2.9,2.88,2.88,0,0,0-5.76,0A2.92,2.92,0,0,0,313.06,135.39Zm12.82-32.88a2.87,2.87,0,1,0-5.74,0,2.86,2.86,0,0,0,2.84,2.9A2.91,2.91,0,0,0,325.88,102.51Zm-50-77.7a2.89,2.89,0,1,0,2.86-2.93A2.92,2.92,0,0,0,275.89,24.81Zm-64,134.93a2.87,2.87,0,1,0-2.9,2.84A2.89,2.89,0,0,0,211.84,159.74Zm89-8.81A2.91,2.91,0,0,0,298,148a2.86,2.86,0,0,0-2.88,2.86,2.83,2.83,0,0,0,2.83,2.88A2.88,2.88,0,0,0,300.82,150.93Zm-53.93,16.33A2.87,2.87,0,0,0,247,173a2.87,2.87,0,0,0-.07-5.74Zm8.9-151.65A2.87,2.87,0,0,0,253,18.49a2.9,2.9,0,0,0,2.91,2.84,2.84,2.84,0,0,0,2.83-2.88A2.88,2.88,0,0,0,255.79,15.61Zm47.86,126.84a2.87,2.87,0,1,0,2.82,2.9A2.84,2.84,0,0,0,303.65,142.45ZM176,77.82a2.88,2.88,0,0,0-5.76,0,2.92,2.92,0,0,0,2.86,2.89A2.88,2.88,0,0,0,176,77.82Zm43.79-53.47a2.88,2.88,0,0,0-2.88-2.86A2.92,2.92,0,0,0,214,24.4a2.89,2.89,0,0,0,2.9,2.83A2.85,2.85,0,0,0,219.75,24.35ZM202.27,152.46a2.87,2.87,0,0,0-2.83,2.9,2.86,2.86,0,1,0,2.83-2.9ZM260.79,19.78a2.87,2.87,0,1,0,2.84-2.9A2.91,2.91,0,0,0,260.79,19.78Zm-72.49,23a2.94,2.94,0,0,0,2.86,2.9A2.88,2.88,0,0,0,194,42.84,2.84,2.84,0,0,0,191.2,40,2.88,2.88,0,0,0,188.3,42.8ZM245,18a2.83,2.83,0,0,0,2.81,2.91A2.92,2.92,0,0,0,250.76,18a2.88,2.88,0,0,0-2.86-2.88A2.79,2.79,0,0,0,245,18Zm47.47,12a2.85,2.85,0,1,0,0,5.7,2.85,2.85,0,1,0,0-5.7Zm-119.55,76.6a2.87,2.87,0,1,0,2.82,2.93A2.91,2.91,0,0,0,172.94,106.55Zm43.12,54a2.83,2.83,0,0,0-2.88,2.84,2.85,2.85,0,1,0,5.69,0A2.83,2.83,0,0,0,216.06,160.5Zm43.81,8.05a2.87,2.87,0,1,0,2.9-2.81A2.85,2.85,0,0,0,259.87,168.55Zm-30.67-149A2.78,2.78,0,0,0,232,22.39a2.73,2.73,0,0,0,2.83-2.81,2.84,2.84,0,1,0-5.67,0ZM316.4,56.4a2.87,2.87,0,1,0-2.83,2.88A2.83,2.83,0,0,0,316.4,56.4ZM270.5,163.71a2.86,2.86,0,1,0-.09,5.72,2.86,2.86,0,0,0,.09-5.72Zm31-125.87a2.88,2.88,0,0,0-5.76,0,2.88,2.88,0,0,0,5.76,0ZM294.62,156a2.88,2.88,0,0,0-5.75-.11,2.88,2.88,0,0,0,2.82,2.92A2.92,2.92,0,0,0,294.62,156ZM172.32,70.1A2.87,2.87,0,0,0,175.2,73a2.85,2.85,0,0,0,0-5.69A2.87,2.87,0,0,0,172.32,70.1ZM203.1,29.38a2.87,2.87,0,1,0,2.79,2.92A2.84,2.84,0,0,0,203.1,29.38ZM324.77,78.72a2.8,2.8,0,0,0-2.83-2.86,2.86,2.86,0,1,0-.05,5.72A2.86,2.86,0,0,0,324.77,78.72ZM309.16,46.9a2.79,2.79,0,0,0-2.79,2.91,2.85,2.85,0,1,0,5.7-.1A2.79,2.79,0,0,0,309.16,46.9ZM209.81,25.11a2.8,2.8,0,0,0-2.88,2.81,2.85,2.85,0,1,0,5.69.07A2.81,2.81,0,0,0,209.81,25.11Zm68.11,135.81a2.84,2.84,0,0,0-2.88,2.83,2.86,2.86,0,1,0,2.88-2.83Zm45.17-77.17a2.84,2.84,0,0,0-2.86,2.85,2.88,2.88,0,0,0,2.88,2.86,2.86,2.86,0,0,0,0-5.71Zm-3.46,31.42a2.85,2.85,0,1,0,2.84,2.88A2.87,2.87,0,0,0,319.63,115.17Zm-33.75-89.6a2.86,2.86,0,1,0,2.81,2.91A2.8,2.8,0,0,0,285.88,25.57Zm-57.6,142.82a2.85,2.85,0,1,0,2.86-2.84A2.79,2.79,0,0,0,228.28,168.39ZM320,68.16a2.84,2.84,0,1,0,2.72,3A2.78,2.78,0,0,0,320,68.16ZM199.71,37.24a2.85,2.85,0,0,0-2.83-2.88,2.85,2.85,0,1,0,2.83,2.88Zm124.83,73.11a2.81,2.81,0,0,0-2.83-2.88,2.87,2.87,0,0,0,0,5.74A2.81,2.81,0,0,0,324.54,110.35ZM240,15.5a2.85,2.85,0,0,0-2.91,2.81,2.81,2.81,0,0,0,2.79,2.9,2.78,2.78,0,0,0,2.89-2.81A2.81,2.81,0,0,0,240,15.5ZM186.18,46.12A2.82,2.82,0,0,0,183.3,49a2.75,2.75,0,0,0,2.79,2.88,2.86,2.86,0,0,0,.09-5.71ZM314.26,63.5a2.79,2.79,0,0,0,2.79,2.91A2.86,2.86,0,0,0,320,63.59a2.85,2.85,0,1,0-5.7-.09Zm-136.2-3.64a2.84,2.84,0,1,0,.07,5.67,2.84,2.84,0,1,0-.07-5.67Zm3.25,69a2.86,2.86,0,0,0-.07,5.71,2.86,2.86,0,1,0,.07-5.71Zm127.35,7.47a2.84,2.84,0,1,0,0,5.67,2.82,2.82,0,0,0,2.86-2.86A2.86,2.86,0,0,0,308.66,136.32Zm10.93-10.89a2.9,2.9,0,0,0-2.89-2.86,2.86,2.86,0,0,0,0,5.72A2.92,2.92,0,0,0,319.59,125.43ZM241.81,169.7a2.84,2.84,0,1,0-5.67,0,2.84,2.84,0,1,0,5.67,0Zm-70.53-79a2.83,2.83,0,0,0-2.81,2.91,2.85,2.85,0,1,0,5.69-.07A2.83,2.83,0,0,0,171.28,90.73Zm24.86,56.7a2.85,2.85,0,0,0,0,5.69,2.74,2.74,0,0,0,2.83-2.83A2.78,2.78,0,0,0,196.14,147.43Zm-5.63-5.67a2.87,2.87,0,0,0,.07,5.74,2.87,2.87,0,0,0-.07-5.74Zm-12.73-24.58a2.88,2.88,0,0,0-5.76-.09,2.88,2.88,0,0,0,5.76.09Zm90.69-95.27a2.88,2.88,0,0,0,2.93,2.81,2.84,2.84,0,0,0,2.81-2.88,2.87,2.87,0,0,0-5.74.07ZM171.77,82.8A2.8,2.8,0,0,0,169,85.68a2.75,2.75,0,0,0,2.86,2.82,2.85,2.85,0,0,0,0-5.7Zm51.71,80.63a2.85,2.85,0,1,0,2.82,2.88A2.8,2.8,0,0,0,223.48,163.43ZM181.75,52.76a2.88,2.88,0,0,0,0,5.76,2.88,2.88,0,0,0,0-5.76Zm-4,69a2.85,2.85,0,1,0,2.81,2.91A2.85,2.85,0,0,0,177.76,121.74Zm80,48.08a2.87,2.87,0,1,0-2.93,2.81A2.87,2.87,0,0,0,257.75,169.82Z"/><text class="cls-4" transform="translate(111.68 256.7)">SHOP</text></g></g></g></svg>