<svg xmlns="http://www.w3.org/2000/svg" viewBox="0 0 988.7 2031.13"><defs><style>.cls-1{font-size:250px;stroke-width:5px;}.cls-1,.cls-11,.cls-4{fill:#f15a24;stroke:#fff;font-family:GoodGirl-Regular, Good Girl;}.cls-1,.cls-10,.cls-11,.cls-3,.cls-4,.cls-5,.cls-9{stroke-miterlimit:10;}.cls-2{letter-spacing:-0.01em;}.cls-3{fill:#06483a;}.cls-10,.cls-3,.cls-5,.cls-9{stroke:#e6e6e6;}.cls-10,.cls-3,.cls-5{stroke-width:8px;}.cls-4{font-size:130px;stroke-width:4px;}.cls-5{fill:#033;}.cls-6{letter-spacing:-0.02em;}.cls-7{letter-spacing:0.01em;}.cls-8{letter-spacing:-0.03em;}.cls-9{fill:#fff;}.cls-11,.cls-9{stroke-width:3px;}.cls-10{fill:#39b54a;}.cls-11{font-size:142.33px;}.cls-12{letter-spacing:-0.02em;}.cls-13{letter-spacing:-0.01em;}.cls-14{letter-spacing:-0.02em;}.cls-15{letter-spacing:0.03em;}</style></defs><g id="Слой_2" data-name="Слой 2"><g id="Settings"><g id="SettingText"><text class="cls-1" transform="translate(84.11 209)">S<tspan class="cls-2" x="147.5" y="0">e</tspan><tspan x="248.25" y="0">ttings</tspan></text></g><g id="Sounds"><path class="cls-3" d="M234.27,614.06H713.91A150.79,150.79,0,0,1,864.7,764.85v0a68.35,68.35,0,0,1-68.35,68.35H234.27A109.57,109.57,0,0,1,124.7,723.63v0A109.57,109.57,0,0,1,234.27,614.06Z"/><text class="cls-4" transform="translate(183.02 760.37)">Sounds</text><path class="cls-5" d="M672.76,613.13h88.79A121.16,121.16,0,0,1,882.71,734.29v0a98.84,98.84,0,0,1-98.84,98.84H672.76a33.05,33.05,0,0,1-33.05-33.05V646.19A33.05,33.05,0,0,1,672.76,613.13Z"/></g><g id="Music"><path class="cls-3" d="M234.27,903.06H713.91A150.79,150.79,0,0,1,864.7,1053.85v0a68.35,68.35,0,0,1-68.35,68.35H234.27A109.57,109.57,0,0,1,124.7,1012.63v0A109.57,109.57,0,0,1,234.27,903.06Z"/><text class="cls-4" transform="translate(183.02 1049.37)"><tspan class="cls-6">M</tspan><tspan x="100.36" y="0">usic</tspan></text><path class="cls-5" d="M678.76,902.13h88.79a121.16,121.16,0,0,1,121.16,121.16v0a98.84,98.84,0,0,1-98.84,98.84H678.76a33.05,33.05,0,0,1-33.05-33.05V935.19A33.05,33.05,0,0,1,678.76,902.13Z"/></g><g id="Vibration"><path class="cls-3" d="M234.27,1193.06H713.91A150.79,150.79,0,0,1,864.7,1343.85v0a68.35,68.35,0,0,1-68.35,68.35H234.27A109.57,109.57,0,0,1,124.7,1302.63v0A109.57,109.57,0,0,1,234.27,1193.06Z"/><text class="cls-4" transform="translate(159.02 1339.37)"><tspan class="cls-7">V</tspan><tspan x="92.95" y="0">ibr</tspan><tspan class="cls-8" x="232.18" y="0">a</tspan><tspan x="286.12" y="0">tion</tspan></text><path class="cls-5" d="M678.76,1192.13h88.79a121.16,121.16,0,0,1,121.16,121.16v0a98.84,98.84,0,0,1-98.84,98.84H678.76a33.05,33.05,0,0,1-33.05-33.05v-153.9A33.05,33.05,0,0,1,678.76,1192.13Z"/></g><g id="Footstep"><ellipse class="cls-9" cx="762.24" cy="691.77" rx="39.94" ry="19.97" transform="translate(44.21 1429.32) rotate(-87.99)"/><ellipse class="cls-9" cx="705.44" cy="692.27" rx="19.97" ry="39.94" transform="translate(-99.07 118.12) rotate(-8.95)"/><ellipse class="cls-9" cx="805.58" cy="724.85" rx="32.9" ry="16.45" transform="translate(-157.64 1221.42) rotate(-69.25)"/><ellipse class="cls-9" cx="668.54" cy="728.73" rx="16.45" ry="32.9" transform="translate(-198.68 253.42) rotate(-18.74)"/><path class="cls-9" d="M711.6,734h52.11a27.53,27.53,0,0,1,27.53,27.53v28.52a13.53,13.53,0,0,1-13.53,13.53H697.6a13.53,13.53,0,0,1-13.53-13.53V761.55A27.53,27.53,0,0,1,711.6,734Z"/></g><g id="RemoveAd"><path class="cls-10" d="M188.35,1539.85H751.47a119.24,119.24,0,0,1,119.24,119.24v0a54,54,0,0,1-54,54H188.35a86.64,86.64,0,0,1-86.64-86.64v0a86.64,86.64,0,0,1,86.64-86.64Z"/><text class="cls-11" transform="translate(188.9 1667.72)"><tspan class="cls-12">R</tspan><tspan x="72.87" y="0">e</tspan><tspan class="cls-13" x="132.08" y="0">m</tspan><tspan class="cls-14" x="222.75" y="0">o</tspan><tspan x="272.99" y="0">ve </tspan><tspan class="cls-15" x="425" y="0">A</tspan><tspan x="518.66" y="0">D</tspan></text></g><g id="Back"><path class="cls-5" d="M279.35,1853.85H607.47a119.24,119.24,0,0,1,119.24,119.24v0a54,54,0,0,1-54,54H279.35a86.64,86.64,0,0,1-86.64-86.64v0a86.64,86.64,0,0,1,86.64-86.64Z"/><text class="cls-11" transform="translate(380.9 1981.72)"><tspan class="cls-12">O</tspan><tspan x="65.76" y="0">K</tspan></text></g></g></g></svg>